<svg xmlns="http://www.w3.org/2000/svg" width="28.991" height="22.991" viewBox="0 0 28.991 22.991">
  <path id="Icon_awesome-angle-double-right" data-name="Icon awesome-angle-double-right" d="M15.74,18.746l-10,10a1.257,1.257,0,0,1-2,0l-2-2a1.257,1.257,0,0,1,0-2l7-7-7-7a1.257,1.257,0,0,1,0-2l2-2a1.257,1.257,0,0,1,2,0l10,10A1.253,1.253,0,0,1,15.74,18.746Zm14-2-10-10a1.257,1.257,0,0,0-2,0l-2,2a1.257,1.257,0,0,0,0,2l7,7-7,7a1.257,1.257,0,0,0,0,2l2,2a1.257,1.257,0,0,0,2,0l10-10A1.257,1.257,0,0,0,29.74,16.746Z" transform="translate(-1.245 -6.251)" fill="#5a5a5a"/>
</svg>
