<svg xmlns="http://www.w3.org/2000/svg" width="26.356" height="26.358" viewBox="0 0 26.356 26.358">
  <path id="Icon_awesome-search" data-name="Icon awesome-search" d="M26,22l-5-5c-.229-.229-.675,0-1,0H19a8.951,8.951,0,0,0,2-6C21,5.165,16.835,0,11,0A11.322,11.322,0,0,0,0,11c0,5.835,5.165,10,11,10a8.951,8.951,0,0,0,6-2v1c0,.325-.229.771,0,1l5,5a1.576,1.576,0,0,0,2,0l2-2A1.582,1.582,0,0,0,26,22ZM11,17c-3.59,0-7-2.4-7-6a7.382,7.382,0,0,1,7-7c3.59,0,6,3.4,6,7A5.676,5.676,0,0,1,11,17Z" fill="rgba(90,90,90,0.51)"/>
</svg>
