<svg xmlns="http://www.w3.org/2000/svg" width="28.713" height="22.991" viewBox="0 0 28.713 22.991">
  <path id="Icon_awesome-angle-double-left" data-name="Icon awesome-angle-double-left" d="M15.734,16.746l10-10a1.257,1.257,0,0,1,2,0l2,2a1.257,1.257,0,0,1,0,2l-7,7,7,7a1.257,1.257,0,0,1,0,2l-2,2a1.257,1.257,0,0,1-2,0l-10-10A1.253,1.253,0,0,1,15.734,16.746Zm-14,2,10,10a1.257,1.257,0,0,0,2,0l2-2a1.257,1.257,0,0,0,0-2l-7-7,7-7a1.257,1.257,0,0,0,0-2l-2-2a1.257,1.257,0,0,0-2,0l-9,10C2.066,17.407,1.073,18.086,1.734,18.746Z" transform="translate(-1.516 -6.251)" fill="#5a5a5a"/>
</svg>
